<?xml version="1.0" standalone="no"?>
<!DOCTYPE svg PUBLIC "-//W3C//DTD SVG 20010904//EN"
 "http://www.w3.org/TR/2001/REC-SVG-20010904/DTD/svg10.dtd">
<svg version="1.0" xmlns="http://www.w3.org/2000/svg"
 width="98.000000pt" height="137.000000pt" viewBox="0 0 98.000000 137.000000"
 preserveAspectRatio="xMidYMid meet">

<g transform="translate(0.000000,137.000000) scale(0.100000,-0.100000)"
fill="#000000" stroke="none">
<path d="M210 1319 c-44 -18 -90 -71 -105 -123 -31 -103 -12 -236 35 -251 20
-6 18 -11 -33 -64 -87 -91 -118 -172 -97 -251 25 -91 107 -129 198 -90 45 20
52 20 74 7 12 -8 37 -18 54 -21 l30 -7 0 -122 c-1 -108 2 -128 23 -174 29 -64
87 -120 136 -129 20 -3 55 -1 78 5 35 10 47 10 72 -3 40 -21 73 -20 111 3 68
41 113 133 121 248 5 64 3 76 -20 117 -14 25 -22 46 -17 46 5 0 23 12 41 27
65 55 87 158 50 238 -23 50 -43 68 -106 96 -78 35 -196 20 -295 -38 -3 -2 -12
13 -19 32 -7 19 -21 40 -32 46 -19 10 -17 14 33 67 71 74 102 140 102 212 0
62 -21 103 -65 126 -36 18 -92 18 -129 -1 -25 -13 -32 -13 -64 0 -40 17 -138
19 -176 4z m143 -30 c41 -11 44 -16 22 -45 -8 -10 -15 -25 -15 -31 0 -25 23
-13 62 32 46 52 89 65 136 41 17 -9 36 -25 42 -35 18 -35 11 -104 -15 -157
-26 -53 -118 -151 -170 -183 -37 -22 -85 -77 -85 -97 0 -25 29 -15 45 16 37
72 127 76 141 5 5 -31 2 -40 -31 -76 -37 -41 -95 -154 -95 -184 0 -18 -33 -20
-79 -4 -35 12 -38 21 -16 39 18 15 20 40 4 40 -7 0 -31 -18 -55 -40 -48 -45
-78 -55 -130 -46 -70 14 -95 114 -50 207 20 42 98 126 157 169 58 42 106 107
89 123 -9 9 -15 7 -28 -12 -56 -79 -102 -100 -135 -63 -24 26 -31 99 -17 166
24 114 110 167 223 135z m507 -458 c19 -9 45 -32 58 -51 20 -30 23 -44 20
-104 -4 -64 -6 -70 -41 -102 -30 -28 -45 -34 -81 -34 -64 0 -101 33 -100 89 1
34 -2 41 -17 41 -27 0 -27 -78 1 -112 21 -27 18 -38 -12 -38 -31 0 -78 -54
-78 -89 0 -62 41 -131 66 -110 11 9 10 16 -6 36 -12 16 -20 41 -20 64 0 50 27
69 97 69 97 0 128 -32 126 -129 -4 -122 -75 -241 -145 -241 -45 0 -66 17 -75
63 -10 49 -27 48 -31 0 -4 -45 -14 -53 -69 -53 -155 0 -207 302 -91 533 79
159 258 234 398 168z"/>
</g>
</svg>
