<?xml version="1.0" encoding="UTF-8"?>
<!DOCTYPE svg PUBLIC "-//W3C//DTD SVG 1.1//EN" "http://www.w3.org/Graphics/SVG/1.1/DTD/svg11.dtd">
<svg xmlns="http://www.w3.org/2000/svg" version="1.1" width="98px" height="137px" style="shape-rendering:geometricPrecision; text-rendering:geometricPrecision; image-rendering:optimizeQuality; fill-rule:evenodd; clip-rule:evenodd" xmlns:xlink="http://www.w3.org/1999/xlink">
<g><path style="opacity:0.872" fill="#0c0c0c" d="M 97.5,60.5 C 97.5,65.1667 97.5,69.8333 97.5,74.5C 95.2742,79.7298 91.6075,83.7298 86.5,86.5C 91.4605,93.1497 92.6272,100.483 90,108.5C 88.6281,116.857 84.4615,123.357 77.5,128C 72.3999,129.195 67.7332,128.362 63.5,125.5C 54.7276,129.388 47.2276,127.721 41,120.5C 38.7754,116.719 37.1087,112.719 36,108.5C 35.264,100.465 35.4307,92.4647 36.5,84.5C 32.3018,84.3234 28.3018,83.3234 24.5,81.5C 13.5922,87.2839 5.25884,84.9506 -0.5,74.5C -0.5,70.8333 -0.5,67.1667 -0.5,63.5C 2.911,56.0667 7.57767,49.4 13.5,43.5C 10.364,40.8957 8.53071,37.5623 8,33.5C 6.14363,8.17245 17.3103,-1.16088 41.5,5.5C 60.4604,-0.0429061 67.627,6.95709 63,26.5C 59.8314,33.3258 55.3314,39.1591 49.5,44C 52.4306,46.2621 54.5973,49.0954 56,52.5C 67.8371,45.1927 79.6704,45.026 91.5,52C 93.891,54.6371 95.891,57.4704 97.5,60.5 Z"/></g>
<g><path style="opacity:1" fill="#f9f9f9" d="M 23.5,6.5 C 28.3697,6.03157 33.0364,6.69824 37.5,8.5C 37.8333,8.83333 38.1667,9.16667 38.5,9.5C 36.9802,11.6621 35.9802,13.9954 35.5,16.5C 36.552,16.6495 37.552,16.4828 38.5,16C 42.1183,7.85573 48.1183,5.18906 56.5,8C 60.3049,12.0911 61.4716,16.9245 60,22.5C 58.11,29.0503 54.61,34.5503 49.5,39C 44.0589,42.8068 38.8922,46.9735 34,51.5C 32.9914,53.0249 32.4914,54.6916 32.5,56.5C 33.675,56.719 34.675,56.3857 35.5,55.5C 37.8628,50.1615 41.8628,47.6615 47.5,48C 51.1241,50.1613 52.2907,53.328 51,57.5C 44.2109,63.7451 40.0442,71.4118 38.5,80.5C 34.366,81.0571 30.6993,80.0571 27.5,77.5C 29.415,75.9288 30.415,73.9288 30.5,71.5C 26.8689,72.6076 23.8689,74.7742 21.5,78C 7.69699,83.2128 1.86366,78.3795 4,63.5C 8.52848,52.9698 15.8618,44.9698 26,39.5C 28.0285,36.9708 29.8619,34.3041 31.5,31.5C 30.9653,29.8987 29.9653,29.3987 28.5,30C 26.7433,32.8456 24.7433,35.5122 22.5,38C 17.6959,40.7068 14.1959,39.5402 12,34.5C 9.21317,22.206 13.0465,12.8727 23.5,6.5 Z"/></g>
<g><path style="opacity:1" fill="#fafafa" d="M 66.5,51.5 C 72.9251,51.1304 79.2584,51.6304 85.5,53C 93.0557,57.8482 95.5557,64.6816 93,73.5C 89.2931,81.8506 83.1265,84.3506 74.5,81C 71.0337,77.9597 69.7004,74.1264 70.5,69.5C 69.5,69.5 68.5,69.5 67.5,69.5C 66.605,74.8826 67.9383,79.5492 71.5,83.5C 60.5298,86.1108 57.6965,92.4442 63,102.5C 64.1096,104.037 65.6096,104.703 67.5,104.5C 60.6424,90.5094 64.9757,85.0094 80.5,88C 84.4064,88.9729 86.573,91.4729 87,95.5C 87.4761,104.08 85.4761,112.08 81,119.5C 77.1,124.533 72.2667,125.7 66.5,123C 64.8207,120.435 64.154,117.602 64.5,114.5C 63.5,114.5 62.5,114.5 61.5,114.5C 62.5267,123.011 58.86,125.844 50.5,123C 44.9331,119.713 41.4331,114.879 40,108.5C 36.9223,91.1496 40.589,75.483 51,61.5C 55.5334,56.9954 60.7001,53.6621 66.5,51.5 Z"/></g>
</svg>
